<svg xmlns="http://www.w3.org/2000/svg" version="1.1" xmlns:xlink="http://www.w3.org/1999/xlink" xmlns:svgjs="http://svgjs.com/svgjs" width="1440" height="560" preserveAspectRatio="none" viewBox="0 0 1440 560"><g mask="url(&quot;#SvgjsMask1000&quot;)" fill="none"><rect width="1440" height="560" x="0" y="0" fill="#0e2a47"></rect><path d="M529.79 264.21L560.21 264.21L560.21 294.63L529.79 294.63z" stroke="#e73635"></path><path d="M406.32 127.91a36.77 36.77 0 1 0 32.83 65.8z" stroke="#d3b714"></path><path d="M207.05 295.08L259.21 295.08L259.21 347.24L207.05 347.24z" fill="#e73635"></path><path d="M1351.43 118.08 a8.97 8.97 0 1 0 17.94 0 a8.97 8.97 0 1 0 -17.94 0z" fill="#d3b714"></path><path d="M249.04 1.46 a7.35 7.35 0 1 0 14.7 0 a7.35 7.35 0 1 0 -14.7 0z" fill="#e73635"></path><path d="M535.66 415.68a47.13 47.13 0 1 0-55.22-76.4z" stroke="#037b0b"></path><path d="M616.88 401.24L667.74 401.24L667.74 416.21L616.88 416.21z" fill="#e73635"></path><path d="M639.23 122.86 a29.12 29.12 0 1 0 58.24 0 a29.12 29.12 0 1 0 -58.24 0z" stroke="#e73635"></path><path d="M647.29 402.1a54.43 54.43 0 1 0 107.2 18.94z" fill="#d3b714"></path><path d="M1329.42 354.35L1352.55 354.35L1352.55 377.48L1329.42 377.48z" fill="#e73635"></path><path d="M1277.29 340.52 a34.1 34.1 0 1 0 68.2 0 a34.1 34.1 0 1 0 -68.2 0z" stroke="#037b0b"></path><path d="M1235.92 550.42a44.69 44.69 0 1 0-77.74-44.12z" fill="#e73635"></path><path d="M521.2 0.93L562.92 0.93L562.92 21.91L521.2 21.91z" stroke="#d3b714"></path><path d="M1112.19 504.28a29.74 29.74 0 1 0-16.09-57.27z" stroke="#e73635"></path><path d="M1135.32 212.02a18.73 18.73 0 1 0 28.03-24.84z" stroke="#d3b714"></path><path d="M1376.26 122.81L1380.09 122.81L1380.09 126.64L1376.26 126.64z" stroke="#037b0b"></path><path d="M824.26 388.92L840.73 388.92L840.73 405.39L824.26 405.39z" fill="#d3b714"></path><path d="M1234.44 107.47L1260.5 107.47L1260.5 140.74L1234.44 140.74z" fill="#037b0b"></path><path d="M1069.24 175.29a19.8 19.8 0 1 0-36.35-15.71z" fill="#d3b714"></path><path d="M701.51 459.31L738.84 459.31L738.84 463.2L701.51 463.2z" fill="#037b0b"></path><path d="M1215.98 13.32 a50.35 50.35 0 1 0 100.7 0 a50.35 50.35 0 1 0 -100.7 0z" fill="#e73635"></path><path d="M846.32 402.71L858.84 402.71L858.84 456.56L846.32 456.56z" stroke="#d3b714"></path><path d="M711.65 316.13L760.56 316.13L760.56 365.04L711.65 365.04z" stroke="#d3b714"></path><path d="M1000.07 216.73 a4.95 4.95 0 1 0 9.9 0 a4.95 4.95 0 1 0 -9.9 0z" stroke="#d3b714"></path><path d="M975.81 358.16 a55.72 55.72 0 1 0 111.44 0 a55.72 55.72 0 1 0 -111.44 0z" fill="#d3b714"></path><path d="M288.01 229.61a19.85 19.85 0 1 0-38.42 10z" stroke="#d3b714"></path><path d="M683.39 552.75L738.66 552.75L738.66 608.02L683.39 608.02z" fill="#037b0b"></path><path d="M159.98 185.05L191.11 185.05L191.11 193.04L159.98 193.04z" stroke="#d3b714"></path><path d="M1378.17 521.02L1401.67 521.02L1401.67 534.85L1378.17 534.85z" fill="#037b0b"></path><path d="M840.14 513.87 a22.02 22.02 0 1 0 44.04 0 a22.02 22.02 0 1 0 -44.04 0z" stroke="#037b0b"></path><path d="M765.63 172L780.24 172L780.24 209.5L765.63 209.5z" fill="#d3b714"></path><path d="M1127.27 297.89L1132.76 297.89L1132.76 353.44L1127.27 353.44z" fill="#d3b714"></path><path d="M1199.16 426L1222.43 426L1222.43 449.27L1199.16 449.27z" fill="#037b0b"></path></g><defs><mask id="SvgjsMask1000"><rect width="1440" height="560" fill="#ffffff"></rect></mask></defs></svg>